<svg xmlns="http://www.w3.org/2000/svg" width="89.275" height="17" viewBox="0 0 89.275 17">
  <g id="Group_7573" data-name="Group 7573" transform="translate(-153 -280)">
    <g id="Group_7560" data-name="Group 7560" transform="translate(-0.26)">
      <text id="Book_a_call" data-name="Book a call" transform="translate(153.26 280)" fill="rgba(32,47,77,0.4)" font-size="13" font-family="ElzaText-Medium, Elza Text" font-weight="500"><tspan x="0" y="12">book a call</tspan></text>
      <g id="Group_7559" data-name="Group 7559" transform="translate(-19.908 2.312)">
        <path id="Path_246" d="M10.364,9.445a.546.546,0,0,1-.559.538H1.626a.546.546,0,0,1-.559-.538V1.572a.55.55,0,0,1,.559-.538H4.1A.264.264,0,0,0,4.363.777h0V.257A.264.264,0,0,0,4.1,0H1.619A1.594,1.594,0,0,0,0,1.566H0V9.439a1.6,1.6,0,0,0,1.626,1.566H9.8a1.6,1.6,0,0,0,1.626-1.566h0V7.053a.264.264,0,0,0-.267-.257h-.533a.264.264,0,0,0-.267.257V9.439Z" transform="translate(251.019 280.686)" fill="#202f4d"/>
        <path id="Path_247" d="M9.163.93h2.083a.293.293,0,0,1,.3.288.283.283,0,0,1-.089.2l-4.674,4.5-.337.324-.032.031h0L6,6.674a.281.281,0,0,0,0,.4l.26.251a.315.315,0,0,0,.425,0h0l.527-.508h0l4.89-4.71a.315.315,0,0,1,.425,0,.283.283,0,0,1,.089.2V4.258a.293.293,0,0,0,.3.288h.368a.293.293,0,0,0,.3-.288V.288a.293.293,0,0,0-.3-.288H9.157a.293.293,0,0,0-.3.288V.642a.293.293,0,0,0,.3.288" transform="translate(248.86 280.686)" fill="#202f4d"/>
      </g>
    </g>
  </g>
</svg>
