<svg xmlns="http://www.w3.org/2000/svg" xmlns:xlink="http://www.w3.org/1999/xlink" width="89.311" height="17" viewBox="0 0 89.311 17">
  <defs>
    <clipPath id="clip-path">
      <rect id="Rectangle_114" data-name="Rectangle 114" width="12" height="12" fill="none"/>
    </clipPath>
  </defs>
  <g id="Group_7572" data-name="Group 7572" transform="translate(-148.26 -280)">
    <text id="Connect_via" data-name="Connect via" transform="translate(148.26 280)" fill="rgba(32,47,77,0.4)" font-size="13" font-family="ElzaText-Medium, Elza Text" font-weight="500"><tspan x="0" y="12">connect via</tspan></text>
    <g id="Group_134" data-name="Group 134" transform="translate(225.57 282.104)">
      <g id="Group_248" data-name="Group 248" clip-path="url(#clip-path)">
        <g id="Group_133" data-name="Group 133" transform="translate(0.044 -0.075)">
          <path id="Path_47" data-name="Path 47" d="M10.708,9.579H8.918V6.773c0-.668-.013-1.527-.931-1.527s-1.074.727-1.074,1.482V9.578H5.124V3.818H6.842V4.6h.023a1.882,1.882,0,0,1,1.693-.93c1.812,0,2.147,1.192,2.147,2.744ZM3.1,3.029a1.039,1.039,0,1,1,1.038-1.04A1.039,1.039,0,0,1,3.1,3.029h0M4,9.579h-1.8V3.818H4ZM11.6-.711H1.311A.881.881,0,0,0,.42.159h0V10.495a.879.879,0,0,0,.889.87H11.6a.884.884,0,0,0,.894-.87V.159a.884.884,0,0,0-.894-.87Z" transform="translate(-0.42 0.711)" fill="#202f4d"/>
        </g>
      </g>
    </g>
  </g>
</svg>
