<svg xmlns="http://www.w3.org/2000/svg" xmlns:xlink="http://www.w3.org/1999/xlink" width="101" height="29.504" viewBox="0 0 101 29.504">
  <defs>
    <clipPath id="clip-path">
      <rect id="Rectangle_55" data-name="Rectangle 55" width="101" height="29.504" fill="#202f4d"/>
    </clipPath>
  </defs>
  <g id="Group_7575" data-name="Group 7575" transform="translate(-14 434)">
    <g id="Group_148" data-name="Group 148" transform="translate(14 -434)" clip-path="url(#clip-path)">
      <path id="Path_95" data-name="Path 95" d="M16.776,20.756a2.182,2.182,0,1,1,0-4.365.033.033,0,0,0,.031-.021L22.708,1.4a2.182,2.182,0,0,1,4.06,1.6l-5.9,14.964a4.374,4.374,0,0,1-4.091,2.785" transform="translate(-6.632 -0.01)" fill="#202f4d"/>
      <path id="Path_96" data-name="Path 96" d="M10.145,20.755a4.374,4.374,0,0,1-4.091-2.785L.153,3.006a2.182,2.182,0,1,1,4.06-1.6l5.9,14.965a2.2,2.2,0,0,1,2.2,2.193,2.179,2.179,0,0,1-2.167,2.193" transform="translate(0 -0.01)" fill="#202f4d"/>
      <path id="Path_97" data-name="Path 97" d="M86.608,24.827c-5.521,0-9.684-4.456-9.684-10.366a11.552,11.552,0,0,1,.735-4.1,2.182,2.182,0,1,1,4.083,1.542,7.206,7.206,0,0,0-.453,2.555c0,2.89,1.665,6,5.319,6a4.9,4.9,0,0,0,4.18-2.128,2.182,2.182,0,1,1,3.571,2.509,9.339,9.339,0,0,1-7.752,3.984" transform="translate(-34.955 -4.068)" fill="#202f4d"/>
      <path id="Path_98" data-name="Path 98" d="M87.1,16a10.486,10.486,0,0,1-8.7-4.261A2.182,2.182,0,1,1,81.986,9.25,6.139,6.139,0,0,0,87.1,11.64h.087c2.546,0,3.692-1.118,3.693-1.912a2.182,2.182,0,0,1,2.182-2.18h0a2.183,2.183,0,0,1,2.18,2.185c0,3.116-2.773,6.271-8.058,6.271Z" transform="translate(-35.45 -3.43)" fill="#202f4d"/>
      <path id="Path_99" data-name="Path 99" d="M80.194,9.272a2.184,2.184,0,0,1-2.042-2.954A9.417,9.417,0,0,1,87.1.048h.088a8.821,8.821,0,0,1,6.342,2.3,5.624,5.624,0,0,1,1.714,3.979A2.182,2.182,0,0,1,93.064,8.5h0a2.183,2.183,0,0,1-2.18-2.185,1.312,1.312,0,0,0-.438-.889,4.616,4.616,0,0,0-3.227-1.016h-.089A5.025,5.025,0,0,0,82.236,7.86a2.183,2.183,0,0,1-2.042,1.412" transform="translate(-35.449 -0.022)" fill="#202f4d"/>
      <path id="Path_100" data-name="Path 100" d="M117.444,8.248a2.182,2.182,0,0,1-2.182-2.18,5.465,5.465,0,0,1,1.647-3.876A7.9,7.9,0,0,1,122.734.077h.108a10.439,10.439,0,0,1,6.6,2.36,2.182,2.182,0,0,1-2.738,3.4,6.143,6.143,0,0,0-3.867-1.395h-.108A3.722,3.722,0,0,0,120,5.277a1.124,1.124,0,0,0-.37.786,2.183,2.183,0,0,1-2.18,2.185Z" transform="translate(-52.377 -0.034)" fill="#202f4d"/>
      <path id="Path_101" data-name="Path 101" d="M129.456,19.6a2.182,2.182,0,0,1-2.182-2.182c0-.327,0-1.092-1.7-1.694a9.693,9.693,0,0,0-2.71-.485c-4.981,0-7.6-3.016-7.6-6a2.183,2.183,0,0,1,2.18-2.185h0a2.182,2.182,0,0,1,2.182,2.18c0,.679,1.012,1.636,3.256,1.636a13.882,13.882,0,0,1,4.039.7c4.1,1.4,4.718,4.265,4.718,5.847a2.182,2.182,0,0,1-2.182,2.182" transform="translate(-52.376 -3.206)" fill="#202f4d"/>
      <path id="Path_102" data-name="Path 102" d="M123.466,30.749a11.388,11.388,0,0,1-7.838-2.871,2.182,2.182,0,1,1,3.086-3.087,7.18,7.18,0,0,0,4.753,1.593c.955,0,3.684-.4,3.684-2.16a2.182,2.182,0,1,1,4.365,0c0,4.284-4.049,6.525-8.048,6.525" transform="translate(-52.252 -10.016)" fill="#202f4d"/>
      <path id="Path_103" data-name="Path 103" d="M49.429,24.827c-5.521,0-9.684-4.456-9.684-10.366a11.541,11.541,0,0,1,.735-4.1,2.182,2.182,0,1,1,4.083,1.543,7.2,7.2,0,0,0-.453,2.554c0,2.89,1.665,6,5.319,6a4.9,4.9,0,0,0,4.18-2.128,2.182,2.182,0,1,1,3.571,2.509,9.338,9.338,0,0,1-7.752,3.984" transform="translate(-18.061 -4.068)" fill="#202f4d"/>
      <path id="Path_104" data-name="Path 104" d="M49.924,16a10.486,10.486,0,0,1-8.7-4.261A2.182,2.182,0,1,1,44.807,9.25a6.139,6.139,0,0,0,5.117,2.39h.087c2.546,0,3.692-1.118,3.693-1.911a2.182,2.182,0,0,1,2.182-2.18h0a2.182,2.182,0,0,1,2.18,2.185C58.066,12.849,55.3,16,50.011,16Z" transform="translate(-18.555 -3.43)" fill="#202f4d"/>
      <path id="Path_105" data-name="Path 105" d="M43.015,9.272a2.184,2.184,0,0,1-2.042-2.954,9.417,9.417,0,0,1,8.95-6.27h.088a8.821,8.821,0,0,1,6.342,2.3,5.624,5.624,0,0,1,1.714,3.979A2.182,2.182,0,0,1,55.885,8.5h0A2.183,2.183,0,0,1,53.7,6.32a1.312,1.312,0,0,0-.438-.889,4.616,4.616,0,0,0-3.227-1.016h-.089A5.025,5.025,0,0,0,45.057,7.86a2.183,2.183,0,0,1-2.042,1.412" transform="translate(-18.555 -0.022)" fill="#202f4d"/>
      <path id="Path_106" data-name="Path 106" d="M159.567,20.779a6.582,6.582,0,0,1-6.156-4.19L148.064,3.03a2.182,2.182,0,0,1,4.061-1.6l5.347,13.56a2.24,2.24,0,0,0,2.1,1.426,2.182,2.182,0,1,1,0,4.365" transform="translate(-67.213 -0.021)" fill="#202f4d"/>
      <path id="Path_107" data-name="Path 107" d="M154.367,29.5a2.182,2.182,0,1,1,0-4.365,3.225,3.225,0,0,0,3.017-2.053l8.558-21.7A2.183,2.183,0,0,1,170,2.984l-8.558,21.7a7.566,7.566,0,0,1-7.077,4.817" transform="translate(-69.155 0)" fill="#202f4d"/>
    </g>
  </g>
</svg>
